<svg width="117" height="43" viewBox="0 0 117 43" fill="none" xmlns="http://www.w3.org/2000/svg">
<path d="M8.84 29C8.088 29 7.512 28.808 7.112 28.424C6.728 28.024 6.536 27.456 6.536 26.72V14.36C6.536 13.624 6.728 13.064 7.112 12.68C7.512 12.28 8.088 12.08 8.84 12.08H16.976C17.552 12.08 17.984 12.224 18.272 12.512C18.56 12.8 18.704 13.216 18.704 13.76C18.704 14.32 18.56 14.752 18.272 15.056C17.984 15.344 17.552 15.488 16.976 15.488H10.76V18.704H16.448C17.008 18.704 17.432 18.848 17.72 19.136C18.024 19.424 18.176 19.848 18.176 20.408C18.176 20.968 18.024 21.392 17.72 21.68C17.432 21.968 17.008 22.112 16.448 22.112H10.76V25.592H16.976C17.552 25.592 17.984 25.744 18.272 26.048C18.56 26.336 18.704 26.752 18.704 27.296C18.704 27.856 18.56 28.28 18.272 28.568C17.984 28.856 17.552 29 16.976 29H8.84ZM25.5022 29.216C24.8302 29.216 24.3102 29.016 23.9422 28.616C23.5742 28.216 23.3902 27.64 23.3902 26.888V19.304C23.3902 18.552 23.5742 17.976 23.9422 17.576C24.3102 17.176 24.8302 16.976 25.5022 16.976C26.1902 16.976 26.7182 17.176 27.0862 17.576C27.4702 17.976 27.6622 18.552 27.6622 19.304V26.888C27.6622 27.64 27.4782 28.216 27.1102 28.616C26.7422 29.016 26.2062 29.216 25.5022 29.216ZM25.5022 15.272C24.7502 15.272 24.1662 15.096 23.7502 14.744C23.3502 14.392 23.1502 13.88 23.1502 13.208C23.1502 12.552 23.3502 12.048 23.7502 11.696C24.1662 11.344 24.7502 11.168 25.5022 11.168C26.2862 11.168 26.8782 11.344 27.2782 11.696C27.6782 12.048 27.8782 12.552 27.8782 13.208C27.8782 13.88 27.6782 14.392 27.2782 14.744C26.8782 15.096 26.2862 15.272 25.5022 15.272ZM40.3162 29.264C39.4042 29.264 38.5882 29.048 37.8682 28.616C37.1642 28.168 36.7002 27.584 36.4762 26.864L36.7402 25.88V27.056C36.7402 27.76 36.5562 28.296 36.1882 28.664C35.8362 29.032 35.3242 29.216 34.6522 29.216C33.9642 29.216 33.4362 29.032 33.0682 28.664C32.7162 28.296 32.5402 27.76 32.5402 27.056V14.024C32.5402 13.32 32.7242 12.784 33.0922 12.416C33.4602 12.048 33.9802 11.864 34.6522 11.864C35.3402 11.864 35.8682 12.048 36.2362 12.416C36.6202 12.784 36.8122 13.32 36.8122 14.024V19.16H36.5242C36.7642 18.504 37.2362 17.968 37.9402 17.552C38.6442 17.136 39.4362 16.928 40.3162 16.928C41.3402 16.928 42.2362 17.176 43.0042 17.672C43.7882 18.168 44.3962 18.872 44.8282 19.784C45.2602 20.696 45.4762 21.8 45.4762 23.096C45.4762 24.36 45.2602 25.456 44.8282 26.384C44.3962 27.312 43.7882 28.024 43.0042 28.52C42.2362 29.016 41.3402 29.264 40.3162 29.264ZM38.9722 26.12C39.4042 26.12 39.7802 26.016 40.1002 25.808C40.4362 25.584 40.7002 25.256 40.8922 24.824C41.0842 24.376 41.1802 23.8 41.1802 23.096C41.1802 22.024 40.9722 21.256 40.5562 20.792C40.1402 20.312 39.6122 20.072 38.9722 20.072C38.5402 20.072 38.1562 20.176 37.8202 20.384C37.4842 20.592 37.2202 20.92 37.0282 21.368C36.8362 21.8 36.7402 22.376 36.7402 23.096C36.7402 24.152 36.9482 24.92 37.3642 25.4C37.7802 25.88 38.3162 26.12 38.9722 26.12ZM51.935 29.216C51.263 29.216 50.743 29.016 50.375 28.616C50.007 28.216 49.823 27.64 49.823 26.888V19.304C49.823 18.552 50.007 17.976 50.375 17.576C50.743 17.176 51.263 16.976 51.935 16.976C52.623 16.976 53.151 17.176 53.519 17.576C53.903 17.976 54.095 18.552 54.095 19.304V26.888C54.095 27.64 53.911 28.216 53.543 28.616C53.175 29.016 52.639 29.216 51.935 29.216ZM51.935 15.272C51.183 15.272 50.599 15.096 50.183 14.744C49.783 14.392 49.583 13.88 49.583 13.208C49.583 12.552 49.783 12.048 50.183 11.696C50.599 11.344 51.183 11.168 51.935 11.168C52.719 11.168 53.311 11.344 53.711 11.696C54.111 12.048 54.311 12.552 54.311 13.208C54.311 13.88 54.111 14.392 53.711 14.744C53.311 15.096 52.719 15.272 51.935 15.272ZM64.949 29.264C63.637 29.264 62.493 29.016 61.517 28.52C60.541 28.024 59.781 27.312 59.237 26.384C58.693 25.456 58.421 24.36 58.421 23.096C58.421 22.136 58.573 21.28 58.877 20.528C59.181 19.76 59.621 19.112 60.197 18.584C60.773 18.04 61.461 17.632 62.261 17.36C63.061 17.072 63.957 16.928 64.949 16.928C66.261 16.928 67.405 17.176 68.381 17.672C69.357 18.168 70.109 18.88 70.637 19.808C71.181 20.72 71.453 21.816 71.453 23.096C71.453 24.04 71.301 24.896 70.997 25.664C70.693 26.432 70.253 27.088 69.677 27.632C69.117 28.16 68.429 28.568 67.613 28.856C66.813 29.128 65.925 29.264 64.949 29.264ZM64.949 26.12C65.381 26.12 65.765 26.016 66.101 25.808C66.437 25.584 66.693 25.256 66.869 24.824C67.061 24.376 67.157 23.8 67.157 23.096C67.157 22.024 66.949 21.256 66.533 20.792C66.117 20.312 65.589 20.072 64.949 20.072C64.517 20.072 64.133 20.176 63.797 20.384C63.461 20.592 63.197 20.92 63.005 21.368C62.813 21.8 62.717 22.376 62.717 23.096C62.717 24.152 62.925 24.92 63.341 25.4C63.757 25.88 64.293 26.12 64.949 26.12ZM77.1384 29.192C76.6104 29.192 76.1864 29.048 75.8664 28.76C75.5464 28.472 75.3784 28.104 75.3624 27.656C75.3624 27.208 75.5464 26.752 75.9144 26.288L79.4664 21.968V23.864L76.2024 19.88C75.8344 19.4 75.6504 18.944 75.6504 18.512C75.6664 18.064 75.8344 17.696 76.1544 17.408C76.4744 17.12 76.8984 16.976 77.4264 16.976C77.9384 16.976 78.3544 17.064 78.6744 17.24C79.0104 17.4 79.3304 17.672 79.6344 18.056L81.8664 20.936H80.3784L82.6104 18.056C82.9144 17.672 83.2344 17.4 83.5704 17.24C83.9064 17.064 84.3224 16.976 84.8184 16.976C85.3624 16.976 85.7864 17.12 86.0904 17.408C86.4104 17.696 86.5704 18.064 86.5704 18.512C86.5864 18.96 86.4024 19.416 86.0184 19.88L82.7544 23.864V21.968L86.3304 26.288C86.7144 26.736 86.8984 27.184 86.8824 27.632C86.8664 28.08 86.6984 28.456 86.3784 28.76C86.0584 29.048 85.6264 29.192 85.0824 29.192C84.5864 29.192 84.1704 29.112 83.8344 28.952C83.4984 28.776 83.1784 28.496 82.8744 28.112L80.3784 24.92H81.8424L79.3224 28.112C79.0344 28.48 78.7224 28.752 78.3864 28.928C78.0664 29.104 77.6504 29.192 77.1384 29.192ZM96.2036 29.264C95.4996 29.264 94.7796 29.208 94.0436 29.096C93.3236 29 92.6676 28.816 92.0756 28.544C91.6756 28.384 91.3876 28.168 91.2116 27.896C91.0516 27.624 90.9716 27.336 90.9716 27.032C90.9876 26.728 91.0756 26.456 91.2356 26.216C91.4116 25.96 91.6356 25.784 91.9076 25.688C92.1956 25.576 92.5156 25.584 92.8676 25.712C93.5396 25.952 94.1396 26.128 94.6676 26.24C95.2116 26.336 95.7316 26.384 96.2276 26.384C96.8196 26.384 97.2436 26.304 97.4996 26.144C97.7556 25.968 97.8836 25.744 97.8836 25.472C97.8836 25.232 97.7956 25.048 97.6196 24.92C97.4596 24.792 97.2276 24.704 96.9236 24.656L94.2596 24.224C93.2676 24.048 92.4996 23.688 91.9556 23.144C91.4116 22.584 91.1396 21.856 91.1396 20.96C91.1396 20.128 91.3716 19.416 91.8356 18.824C92.3156 18.216 92.9636 17.752 93.7796 17.432C94.6116 17.096 95.5636 16.928 96.6356 16.928C97.3556 16.928 98.0116 16.984 98.6036 17.096C99.1956 17.192 99.7716 17.376 100.332 17.648C100.684 17.792 100.932 18 101.076 18.272C101.22 18.544 101.276 18.832 101.244 19.136C101.212 19.424 101.108 19.696 100.932 19.952C100.772 20.192 100.548 20.36 100.26 20.456C99.9716 20.536 99.6356 20.512 99.2516 20.384C98.7236 20.176 98.2516 20.024 97.8356 19.928C97.4356 19.832 97.0596 19.784 96.7076 19.784C96.0516 19.784 95.5876 19.872 95.3156 20.048C95.0436 20.224 94.9076 20.448 94.9076 20.72C94.9076 20.928 94.9796 21.104 95.1236 21.248C95.2676 21.376 95.4916 21.464 95.7956 21.512L98.4596 21.968C99.4836 22.128 100.268 22.48 100.812 23.024C101.372 23.552 101.652 24.272 101.652 25.184C101.652 26.48 101.156 27.488 100.164 28.208C99.1716 28.912 97.8516 29.264 96.2036 29.264Z" fill="black"/>
<circle cx="107.5" cy="9.5" r="4.5" fill="#FF8080"/>
</svg>
